# xmcd CD database file
#
# Track frame offsets:
#	150
#	25944
#	59338
#	108844
#	133078
#	160349
#	202283
#	235607
#
# Disc length: 3269 seconds
#
# Revision: 0
# Processed by: cddbd v1.5.1PL0 Copyright (c) Steve Scherf et al.
# Submitted via: CDex 1.51
#
DISCID=6b0cc308
DTITLE=The Mark Stone Band - Kickin' at the old point
DYEAR=2005
DGENRE=Blues
TTITLE0=20-75
TTITLE1=7th avenue (oh she was so pretty)
TTITLE2=write me a few of your lines
TTITLE3=shining like a diamond
TTITLE4=i can't hold out
TTITLE5=tell me/sean's lament (sean C - lead vocal)
TTITLE6=restless heart
TTITLE7=bye bye shuffle
EXTD=YEAR: 2005
EXTT0=
EXTT1=
EXTT2=
EXTT3=
EXTT4=
EXTT5=
EXTT6=
EXTT7=
PLAYORDER=
